<?xml version="1.0" standalone="no"?>
<!DOCTYPE svg PUBLIC "-//W3C//DTD SVG 20010904//EN"
 "http://www.w3.org/TR/2001/REC-SVG-20010904/DTD/svg10.dtd">
<svg version="1.0" xmlns="http://www.w3.org/2000/svg"
 width="512.000000pt" height="512.000000pt" viewBox="0 0 512.000000 512.000000"
 preserveAspectRatio="xMidYMid meet">
<metadata>
Created by potrace 1.11, written by Peter Selinger 2001-2013
</metadata>
<g transform="translate(0.000000,512.000000) scale(0.100000,-0.100000)"
fill="#000000" stroke="none">
<path d="M1650 4909 c-50 -15 -70 -37 -70 -76 0 -28 -9 -43 -52 -84 -46 -42
-57 -48 -84 -44 -38 6 -75 -9 -93 -37 -67 -107 -140 -295 -185 -473 -49 -193
-106 -567 -106 -692 0 -50 -8 -73 -25 -73 -28 0 -265 -73 -371 -115 -329 -128
-535 -278 -620 -451 -37 -73 -39 -83 -39 -169 1 -81 4 -97 34 -159 124 -257
546 -480 1153 -610 408 -87 746 -124 1233 -133 540 -10 999 29 1457 123 155
32 377 90 441 116 58 23 75 88 33 127 -31 29 -59 26 -223 -22 -655 -194 -1710
-247 -2528 -128 -251 37 -262 40 -315 82 -87 69 -170 204 -201 329 -17 70 -17
219 0 290 15 65 80 203 115 244 l24 29 74 -31 c768 -320 1634 -336 2403 -45
165 63 319 136 350 167 23 23 25 32 25 111 l0 87 33 -7 c66 -15 299 -96 394
-138 209 -92 387 -227 433 -328 27 -61 26 -140 -4 -205 -42 -91 -182 -207
-352 -292 -63 -32 -74 -45 -74 -88 0 -32 42 -74 74 -74 30 0 157 66 252 132
84 57 190 164 226 228 172 298 -51 599 -606 815 -108 42 -344 115 -372 115
-17 0 -19 9 -38 210 -36 381 -117 714 -226 932 -144 288 -320 387 -587 332
-151 -31 -250 -96 -390 -255 -129 -146 -200 -187 -309 -176 -76 8 -131 41
-209 126 -184 199 -245 247 -370 287 -90 29 -246 41 -305 23z m1841 -177 c157
-82 289 -381 365 -829 13 -80 24 -155 24 -167 0 -19 -17 -29 -112 -70 -541
-229 -1131 -300 -1708 -205 -122 20 -387 82 -398 94 -10 9 27 277 53 383 59
245 184 497 328 665 l33 38 43 -48 c125 -139 198 -205 261 -236 61 -30 70 -32
180 -32 103 0 121 3 170 26 69 32 121 78 238 206 141 154 231 201 388 202 71
1 89 -3 135 -27z"/>
</g>
</svg>
